<svg xmlns="http://www.w3.org/2000/svg" width="1440" height="560" preserveAspectRatio="none" viewBox="0 0 1440 560">
  <g mask="url(#SvgjsMask1000)" fill="none">
    <rect width="1440" height="560" x="0" y="0" fill="#0e2a47"></rect>
    <path d="M 0,268 C 57.6,231.2 172.8,83.6 288,84 C 403.2,84.4 460.8,259.6 576,270 C 691.2,280.4 748.8,152.2 864,136 C 979.2,119.8 1036.8,192.6 1152,189 C 1267.2,185.4 1382.4,132.2 1440,118L1440 560L0 560z" fill="#184a7e"></path>
    <path d="M 0,318 C 96,347 288,449.6 480,463 C 672,476.4 768,372.6 960,385 C 1152,397.4 1344,497 1440,525L1440 560L0 560z" fill="#2264ab"></path>
  </g>
  <defs>
    <mask id="SvgjsMask1000">
      <rect width="1440" height="560" fill="white"></rect>
    </mask>
  </defs>
</svg>
